<?xml version="1.0" encoding="iso-8859-1" ?>
<!-- Generator: Adobe Illustrator 19.0.0, SVG Export Plug-In . SVG Version: 6.00 Build 0)  -->
<svg width="35px" height="35px" version="1.1" id="Layer_1" xmlns="http://www.w3.org/2000/svg" xmlns:xlink="http://www.w3.org/1999/xlink" x="0px" y="0px" viewBox="0 0 512 512" style="enable-background:new 0 0 512 512;" xml:space="preserve">
	<path style="fill:#F6981E;" d="M298.663,8.584H77.415c-18.951,0-34.403,15.188-34.727,34.13v400.429
	c0,19.181,15.546,34.727,34.727,34.727h245.65c-32.995-33.644-32.475-87.671,1.169-120.666
	c11.741-11.519,26.57-19.394,42.679-22.688c11.263-2.278,22.867-2.278,34.13,0V110.965L298.663,8.584z" />
	<g>
		<path style="fill:#FDB50D;" d="M366.922,145.104v189.421c-24.625,5.009-45.794,20.614-57.85,42.662
		c-18.021,32.978-12.338,73.866,13.993,100.683H77.415c-19.181,0-34.727-15.546-34.727-34.727V42.714h221.844L366.922,145.104z" />
		<path style="fill:#FDB50D;" d="M366.922,334.525v34.13c-5.614-1.143-11.331-1.715-17.065-1.707
		c-14.258-0.026-28.285,3.558-40.785,10.41C321.094,355.242,342.263,339.567,366.922,334.525z" />
	</g>
	<g>
		<path style="fill:#F6981E;" d="M401.052,110.974H333.39c-19.181,0-34.727-15.546-34.727-34.727V8.584L401.052,110.974z" />
		<path style="fill:#F6981E;" d="M366.922,145.104H299.26c-19.181,0-34.727-15.546-34.727-34.727V42.714L366.922,145.104z" />
	</g>
	<path style="fill:#215EFF;" d="M469.312,418.143c-0.009,47.125-38.217,85.316-85.342,85.308s-85.316-38.217-85.308-85.342
	c0.009-40.538,28.541-75.478,68.26-83.584l0,0c46.169-9.428,91.238,20.367,100.666,66.536
	C468.732,406.684,469.312,412.401,469.312,418.143z" />
	<path style="fill:#0F7BE4;" d="M435.182,418.143c0.009,40.555-28.524,75.504-68.26,83.618
	c-46.178-9.377-76.016-54.42-66.639-100.598c6.817-33.575,33.063-59.821,66.639-66.639l0,0
	C406.658,342.63,435.191,377.588,435.182,418.143z" />
	<polygon style="fill:#FFFFFF;" points="426.65,401.078 426.65,435.208 401.052,435.208 401.052,460.805 366.922,460.805 
	366.922,435.208 341.325,435.208 341.325,401.078 366.922,401.078 366.922,375.481 401.052,375.481 401.052,401.078 " />
	<path d="M349.857,213.363H85.351c-4.71,0-8.532-3.823-8.532-8.532s3.823-8.532,8.532-8.532h264.507c4.71,0,8.533,3.823,8.533,8.532
	S354.567,213.363,349.857,213.363z" />
	<path d="M349.857,315.753H85.351c-4.71,0-8.532-3.823-8.532-8.532c0-4.71,3.823-8.533,8.532-8.533h264.507
	c4.71,0,8.533,3.823,8.533,8.533C358.39,311.931,354.567,315.753,349.857,315.753z" />
	<path d="M213.338,247.493H85.351c-4.71,0-8.532-3.823-8.532-8.532s3.823-8.532,8.532-8.532h127.987c4.71,0,8.532,3.823,8.532,8.532
	S218.048,247.493,213.338,247.493z" />
	<path d="M349.857,247.493H256c-4.71,0-8.532-3.823-8.532-8.532s3.823-8.532,8.532-8.532h93.857c4.71,0,8.533,3.823,8.533,8.532
	S354.567,247.493,349.857,247.493z" />
	<path d="M349.857,281.623H196.273c-4.71,0-8.532-3.823-8.532-8.533c0-4.71,3.823-8.532,8.532-8.532h153.585
	c4.71,0,8.533,3.823,8.533,8.532S354.567,281.623,349.857,281.623z" />
	<path d="M162.143,281.623H85.351c-4.71,0-8.532-3.823-8.532-8.533c0-4.71,3.823-8.532,8.532-8.532h76.792
	c4.71,0,8.532,3.823,8.532,8.532S166.853,281.623,162.143,281.623z" />
	<path d="M323.065,486.403H77.415c-23.874-0.051-43.208-19.386-43.26-43.26V43.311c0.051-23.874,19.386-43.208,43.26-43.26h221.247
	c2.27-0.017,4.445,0.879,6.058,2.474l102.39,102.39c1.596,1.613,2.491,3.788,2.474,6.058v223.551
	c0.094,4.71-3.643,8.609-8.362,8.703c-0.631,0.009-1.263-0.043-1.877-0.171c-41.57-8.396-82.074,18.498-90.47,60.077
	c-5.017,24.855,2.56,50.598,20.248,68.763c3.302,3.362,3.242,8.771-0.119,12.065C327.417,485.515,325.284,486.394,323.065,486.403z
	 M77.415,17.116c-14.471,0-26.195,11.724-26.195,26.195v399.832c0,14.471,11.724,26.195,26.195,26.195h227.903
	c-28.277-43.447-15.973-101.588,27.475-129.864c15.239-9.915,33.021-15.196,51.195-15.188c2.816,0,5.717,0,8.532,0V114.472
	l-97.356-97.356C295.164,17.116,77.415,17.116,77.415,17.116z" />
	<path d="M401.052,119.506H333.39c-23.874-0.051-43.208-19.386-43.26-43.26V8.584c-0.026-4.71,3.771-8.558,8.481-8.584
	c2.295-0.017,4.497,0.896,6.109,2.526l102.39,102.39c3.345,3.319,3.37,8.72,0.051,12.065
	C405.549,118.61,403.348,119.515,401.052,119.506z M307.195,29.147v47.099c0,14.471,11.724,26.195,26.195,26.195h47.099
	L307.195,29.147z" />
	<path d="M383.987,512c-51.835,0-93.857-42.022-93.857-93.857s42.022-93.857,93.857-93.857s93.857,42.022,93.857,93.857
	S435.822,512,383.987,512z M383.987,341.351c-42.415,0.043-76.758,34.454-76.716,76.869s34.454,76.758,76.869,76.716
	c42.415-0.043,76.758-34.454,76.716-76.869c-0.034-36.493-25.751-67.919-61.511-75.18
	C394.286,341.863,389.141,341.342,383.987,341.351z" />
	<path d="M401.052,469.338h-34.13c-4.71,0-8.532-3.823-8.532-8.533V443.74h-17.065c-4.71,0-8.532-3.823-8.532-8.533v-34.13
	c0-4.71,3.823-8.532,8.532-8.532h17.065v-17.065c0-4.71,3.823-8.532,8.532-8.532h34.13c4.71,0,8.532,3.823,8.532,8.532v17.065
	h17.065c4.71,0,8.532,3.823,8.532,8.532v34.13c0,4.71-3.823,8.533-8.532,8.533h-17.065v17.065
	C409.585,465.515,405.762,469.338,401.052,469.338z M375.455,452.273h17.065v-17.065c0-4.71,3.823-8.532,8.532-8.532h17.065V409.61
	h-17.065c-4.71,0-8.532-3.823-8.532-8.532v-17.065h-17.065v17.065c0,4.71-3.823,8.532-8.532,8.532h-17.065v17.065h17.065
	c4.71,0,8.532,3.823,8.532,8.532V452.273z" />
	<g>
		<path style="fill:#C90006;" d="M349.857,213.363H85.351c-4.71,0-8.532-3.823-8.532-8.532s3.823-8.532,8.532-8.532h264.507
		c4.71,0,8.533,3.823,8.533,8.532S354.567,213.363,349.857,213.363z" />
		<path style="fill:#C90006;" d="M349.857,315.753H85.351c-4.71,0-8.532-3.823-8.532-8.532c0-4.71,3.823-8.533,8.532-8.533h264.507
		c4.71,0,8.533,3.823,8.533,8.533C358.39,311.931,354.567,315.753,349.857,315.753z" />
		<path style="fill:#C90006;" d="M213.338,247.493H85.351c-4.71,0-8.532-3.823-8.532-8.532s3.823-8.532,8.532-8.532h127.987
		c4.71,0,8.532,3.823,8.532,8.532S218.048,247.493,213.338,247.493z" />
		<path style="fill:#C90006;" d="M349.857,247.493H256c-4.71,0-8.532-3.823-8.532-8.532s3.823-8.532,8.532-8.532h93.857
		c4.71,0,8.533,3.823,8.533,8.532S354.567,247.493,349.857,247.493z" />
		<path style="fill:#C90006;" d="M349.857,281.623H196.273c-4.71,0-8.532-3.823-8.532-8.533c0-4.71,3.823-8.532,8.532-8.532h153.585
		c4.71,0,8.533,3.823,8.533,8.532S354.567,281.623,349.857,281.623z" />
		<path style="fill:#C90006;" d="M162.143,281.623H85.351c-4.71,0-8.532-3.823-8.532-8.533c0-4.71,3.823-8.532,8.532-8.532h76.792
		c4.71,0,8.532,3.823,8.532,8.532S166.853,281.623,162.143,281.623z" />
	</g>
	<g></g>
	<g></g>
	<g></g>
	<g></g>
	<g></g>
	<g></g>
	<g></g>
	<g></g>
	<g></g>
	<g></g>
	<g></g>
	<g></g>
	<g></g>
	<g></g>
	<g></g>
</svg>