<svg class="icon icon-default" height="512" viewBox="0 0 64 64" width="512" xmlns="http://www.w3.org/2000/svg">
  <g id="Layer_14" data-name="Layer 14">
    <path d="m3 49h10v4h-10z" />
    <path d="m3 43h10v4h-10z" />
    <path d="m12 18a11 11 0 0 1 22 0v9h4v-9a15 15 0 0 0 -30 0v9h4z" />
    <path d="m3 37h10v4h-10z" />
    <path d="m36.78 38 3.31-.73c.31-.07.61-.16.91-.25v-5.02a3 3 0 0 0 -3-3h-30a3 3 0 0 0 -3 3v3h9a1 1 0 0 1 1 1v18a1 1 0 0 1 -1 1h-9v3a3 3 0 0 0 3 3h30a3 3 0 0 0 3-3v-2.76a29.14 29.14 0 0 1 -5-16.24 1 1 0 0 1 .78-1zm-10.67 15.92a5 5 0 0 1 -3.11 1.08 5.37 5.37 0 0 1 -1.19-.14 5 5 0 0 1 -1.81-8.86v-8a3 3 0 0 1 6 0v8a5 5 0 0 1 .11 7.9z" />
    <path d="m24.5 47.42a1 1 0 0 1 -.5-.87v-8.55a1 1 0 0 0 -2 0v8.55a1 1 0 0 1 -.5.87 3 3 0 1 0 3.36 4.93 3 3 0 0 0 -.36-4.93z" />
    <path d="m57.48 39.24a14.63 14.63 0 0 1 -8.48-5.45 14.63 14.63 0 0 1 -8.48 5.45l-2.52.56a27.15 27.15 0 0 0 10.8 20.8l.2.15.2-.15a27.15 27.15 0 0 0 10.8-20.8zm-8.48 14.76a7 7 0 1 1 3.43-13.1l.68-1.35 1.78.9-.89 1.71a7 7 0 0 1 -5 11.84z" />
    <path d="m49.89 50.45a1 1 0 0 1 -.8.55h-.09a1 1 0 0 1 -.8-.4l-3-4 1.6-1.2 2 2.71 2.7-5.4a5 5 0 1 0 1.53 1.4z" />
  </g>
</svg>