<svg class="icon icon-color" id="Capa_1" enable-background="new 0 0 512 512" height="512" viewBox="0 0 512 512" width="512" xmlns="http://www.w3.org/2000/svg">
  <path d="m384.584 504.5h-238.404c-6.858 0-12.417-5.559-12.417-12.417v-316.217c0-6.858 5.559-12.417 12.417-12.417h238.404c6.858 0 12.417 5.559 12.417 12.417v316.217c0 6.858-5.559 12.417-12.417 12.417z" fill="#d4d4d4" />
  <path d="m310.506 419.5h-288c-8.284 0-15-6.716-15-15v-382c0-8.284 6.716-15 15-15h288c8.284 0 15 6.716 15 15v382c0 8.284-6.716 15-15 15z" fill="#f5f5f5" />
  <path d="m295.506 7.5v412h15c8.284 0 15-6.716 15-15v-382c0-8.284-6.716-15-15-15z" fill="#e6e6e6" />
  <path d="m113.006 341.545h-52c-2.209 0-4-1.791-4-4v-52c0-2.209 1.791-4 4-4h52c2.209 0 4 1.791 4 4v52c0 2.209-1.791 4-4 4z" fill="#ff3d7a" />
  <circle cx="166.506" cy="94" fill="#ebad88" r="36" />
  <path d="m166.506 58c-5.355 0-10.432 1.178-15 3.275 12.391 5.689 21 18.198 21 32.725s-8.609 27.036-21 32.725c4.568 2.097 9.645 3.275 15 3.275 19.882 0 36-16.118 36-36s-16.118-36-36-36z" fill="#e8916f" />
  <path d="m198.506 230h-64c-13.255 0-24-10.745-24-24v-34c0-23.196 18.804-42 42-42h28c23.196 0 42 18.804 42 42v34c0 13.255-10.745 24-24 24z" fill="#8c9eff" />
  <path d="m180.506 130h-28c-.335 0-.667.017-1 .025 22.732.533 41 19.114 41 41.975v34c0 13.255-10.745 24-24 24h30c13.255 0 24-10.745 24-24v-34c0-23.196-18.804-42-42-42z" fill="#7488ed" />
  <path d="m176.208 156.58h-19.404l-5.298-26.58h30z" fill="#ffb300" />
  <path d="m186.506 200.948-20 9.632-20-9.632 10.298-44.368h19.404z" fill="#ffca28" />
  <path d="m500.113 500.107c-5.858 5.858-15.355 5.858-21.213 0l-74.246-74.246 21.213-21.213 74.246 74.246c5.858 5.857 5.858 15.355 0 21.213z" fill="#ff3d7a" />
  <circle cx="358.499" cy="361.473" fill="#8c9eff" r="105" />
  <circle cx="358.499" cy="361.473" fill="#bdf9ff" r="75" />
  <path d="m7.5 72.579c4.142 0 7.5-3.358 7.5-7.5v-42.579c0-4.136 3.364-7.5 7.5-7.5h233.507c4.142 0 7.501-3.358 7.501-7.5s-3.358-7.5-7.5-7.5h-233.507c-12.407 0-22.501 10.093-22.501 22.5v42.579c0 4.142 3.358 7.5 7.5 7.5z" />
  <path d="m61.002 274.045c-6.341 0-11.5 5.159-11.5 11.5v52c0 6.341 5.159 11.5 11.5 11.5h52.001c6.341 0 11.5-5.159 11.5-11.5v-52c0-6.341-5.159-11.5-11.5-11.5zm48.501 60h-45.001v-45h45.001z" />
  <path d="m198.506 237.5c17.37 0 31.501-14.131 31.501-31.5v-34c0-21.608-13.917-40.025-33.258-46.762 8.171-7.913 13.258-18.992 13.258-31.238 0-23.986-19.515-43.5-43.501-43.5-23.987 0-43.502 19.514-43.502 43.5 0 12.245 5.087 23.325 13.258 31.238-19.341 6.737-33.258 25.155-33.258 46.762v34c0 17.369 14.131 31.5 31.501 31.5zm-35.745-73.42h7.488l7.593 32.716-11.337 5.46-11.338-5.46zm9.602-26.58-2.308 11.58h-7.099l-2.308-11.58zm-5.858-72c15.715 0 28.501 12.785 28.501 28.5s-12.785 28.5-28.501 28.5-28.501-12.785-28.501-28.5 12.785-28.5 28.501-28.5zm-48.502 140.5v-34c0-16.622 11.817-30.536 27.491-33.784l3.636 18.244-9.932 42.792c-.793 3.418.89 6.93 4.051 8.453l20.001 9.632c1.028.495 2.141.743 3.254.743s2.226-.248 3.254-.743l20-9.632c3.162-1.523 4.845-5.035 4.051-8.453l-9.932-42.792 3.636-18.244c15.674 3.248 27.491 17.162 27.491 33.784v34c0 9.098-7.402 16.5-16.5 16.5h-64.002c-9.097 0-16.499-7.402-16.499-16.5z" />
  <path d="m505.428 473.587-51.918-51.917c11.075-17.417 17.496-38.071 17.496-60.197 0-45.656-27.338-85.046-66.505-102.663v-82.94c0-10.984-8.932-19.92-19.911-19.92h-51.58v-133.45c0-12.407-10.094-22.5-22.501-22.5h-22.634c-4.143 0-7.5 3.358-7.5 7.5s3.358 7.5 7.5 7.5h22.634c4.136 0 7.5 3.364 7.5 7.5v234.009c-16.547 6.405-31.214 16.616-42.922 29.553-.056-.001-.112-.002-.168-.002h-120.561c-4.142 0-7.5 3.358-7.5 7.5s3.358 7.5 7.5 7.5h109.277c-3.261 5.103-6.123 10.486-8.539 16.103h-100.738c-4.142 0-7.5 3.358-7.5 7.5s3.358 7.5 7.5 7.5h95.515c-2.525 9.348-3.872 19.175-3.872 29.31 0 18.159 4.325 35.326 11.998 50.527h-235.498c-4.136 0-7.5-3.364-7.5-7.5v-309.003c0-4.142-3.358-7.5-7.5-7.5s-7.501 3.358-7.501 7.5v309.003c0 12.407 10.094 22.5 22.501 22.5h103.763v65.08c0 10.984 8.932 19.92 19.911 19.92h173.702c4.143 0 7.5-3.358 7.5-7.5s-3.358-7.5-7.5-7.5h-173.703c-2.708 0-4.91-2.207-4.91-4.92v-65.08h125.839c20.439 28.427 53.794 46.973 91.401 46.973 10.747 0 21.147-1.515 30.998-4.343v22.449c0 2.713-2.203 4.92-4.91 4.92h-32.714c-4.143 0-7.5 3.358-7.5 7.5s3.358 7.5 7.5 7.5h32.714c10.979 0 19.911-8.936 19.911-19.92v-27.944c6.251-2.812 12.2-6.177 17.785-10.035l51.318 51.317c8.771 8.756 23.045 8.759 31.827-.008 8.757-8.772 8.757-23.046-.005-31.822zm-172.418-302.637h51.581c2.707 0 4.91 2.207 4.91 4.92v77.446c-9.851-2.827-20.251-4.343-30.998-4.343-8.765 0-17.3 1.008-25.494 2.913v-80.936zm-72.01 190.523c0-53.762 43.74-97.5 97.503-97.5s97.502 43.738 97.502 97.5-43.739 97.5-97.502 97.5-97.503-43.738-97.503-97.5zm233.825 133.329c-2.928 2.924-7.694 2.924-10.617.004l-50.097-50.096c3.705-3.369 7.186-6.981 10.416-10.811l50.29 50.29c2.923 2.929 2.923 7.693.008 10.613z" />
  <path d="m358.504 278.973c-45.492 0-82.503 37.009-82.503 82.5s37.011 82.5 82.503 82.5c45.491 0 82.502-37.009 82.502-82.5s-37.011-82.5-82.502-82.5zm0 150c-37.221 0-67.503-30.28-67.503-67.5s30.282-67.5 67.503-67.5 67.502 30.28 67.502 67.5-30.282 67.5-67.502 67.5z" />
  <path d="m399.837 349.206h-20.38c-3.106 0-5.89 1.914-7.002 4.813l-5.634 14.684-6.276-51.184c-.417-3.401-3.086-6.087-6.485-6.526-3.399-.434-6.661 1.482-7.929 4.666l-13.938 35.035h-16.411c-4.143 0-7.5 3.358-7.5 7.5s3.357 7.5 7.5 7.5h21.499c3.072 0 5.833-1.874 6.969-4.728l4.976-12.506 6.369 51.949c.419 3.418 3.112 6.112 6.53 6.532.308.038.614.056.918.056 3.071 0 5.876-1.888 6.998-4.814l14.57-37.977h15.225c4.143 0 7.5-3.358 7.5-7.5s-3.357-7.5-7.499-7.5z" />
</svg>