<svg class="icon icon-default" height="607pt" viewBox="-46 -19 607 607.99775" width="607pt" xmlns="http://www.w3.org/2000/svg">
  <path d="m67.777344 288.433594v49.554687c0 4.820313 3.910156 8.734375 8.734375 8.734375 4.820312 0 8.734375-3.914062 8.734375-8.734375v-40.820312h161.65625v40.382812c0 4.820313 3.914062 8.734375 8.734375 8.734375 4.824219 0 8.734375-3.914062 8.734375-8.734375v-40.382812h161.660156v40.820312c0 4.820313 3.910156 8.734375 8.734375 8.734375 4.828125 0 8.734375-3.914062 8.734375-8.734375v-49.554687c0-4.824219-3.90625-8.734375-8.734375-8.734375h-170.394531v-30.757813c0-4.824218-3.910156-8.734375-8.734375-8.734375-4.820313 0-8.734375 3.910157-8.734375 8.734375v30.753906h-170.390625c-4.824219 0-8.738281 3.914063-8.734375 8.738282zm0 0" />
  <path d="m355.457031 221.386719c25.488281-.027344 46.136719-20.679688 46.167969-46.164063v-129.054687c-.03125-25.488281-20.679688-46.1406252-46.167969-46.167969h-199.640625c-25.484375.0273438-46.136718 20.679688-46.167968 46.167969v129.054687c.03125 25.484375 20.683593 46.136719 46.167968 46.164063zm-199.640625-17.46875c-5.230468.007812-10.367187-1.425781-14.839844-4.140625l59.636719-60.996094c3.296875-3.457031 3.199219-8.925781-.21875-12.265625-3.417969-3.34375-8.886719-3.320313-12.273437.054687l-58.65625 59.996094c-1.546875-3.582031-2.347656-7.441406-2.347656-11.34375v-119.96875l105.171874 89.054688c13.488282 11.484375 33.316407 11.476562 46.792969-.019532l105.074219-89.121093v120.054687c.003906 3.921875-.804688 7.808594-2.371094 11.402344l-59.042968-60.070312c-2.171876-2.28125-5.410157-3.210938-8.464844-2.4375-3.058594.769531-5.453125 3.132812-6.285156 6.175781-.828126 3.039062.050781 6.292969 2.292968 8.503906l59.960938 61.007813c-4.460938 2.695312-9.574219 4.125-14.789063 4.121093zm0-186.449219h199.640625c11.296875.015625 21.539063 6.644531 26.171875 16.941406l-113.84375 96.554688c-6.976562 5.945312-17.230468 5.953125-24.210937.015625l-113.960938-96.5c4.621094-10.339844 14.882813-17.003907 26.203125-17.011719zm0 0" />
  <path d="m23.554688 414.652344c0 28.949218 23.464843 52.40625 52.40625 52.40625 28.941406 0 52.40625-23.457032 52.40625-52.40625 0-28.941406-23.464844-52.40625-52.40625-52.40625-28.925782.035156-52.371094 23.480468-52.40625 52.40625zm52.40625-34.9375c19.296874 0 34.9375 15.648437 34.9375 34.9375 0 19.296875-15.640626 34.9375-34.9375 34.9375-19.296876 0-34.9375-15.640625-34.9375-34.9375.023437-19.28125 15.652343-34.910156 34.9375-34.9375zm0 0" />
  <path d="m75.960938 483.902344c-42.703126.050781-77.3125 34.660156-77.359376 77.359375 0 4.828125 3.914063 8.734375 8.734376 8.734375h137.25c4.828124 0 8.734374-3.90625 8.734374-8.734375-.046874-42.699219-34.652343-77.308594-77.359374-77.359375zm-59.253907 68.628906c4.3125-29.402344 29.539063-51.195312 59.253907-51.195312 29.71875 0 54.941406 21.792968 59.257812 51.195312zm0 0" />
  <path d="m203.230469 414.652344c0 28.949218 23.464843 52.40625 52.40625 52.40625 28.941406 0 52.40625-23.457032 52.40625-52.40625 0-28.941406-23.464844-52.40625-52.40625-52.40625-28.925781.035156-52.371094 23.480468-52.40625 52.40625zm87.34375 0c0 19.296875-15.640625 34.9375-34.9375 34.9375s-34.9375-15.640625-34.9375-34.9375c0-19.289063 15.640625-34.9375 34.9375-34.9375 19.285156.027344 34.917969 15.652344 34.9375 34.9375zm0 0" />
  <path d="m255.636719 483.902344c-42.699219.050781-77.3125 34.660156-77.359375 77.359375 0 4.828125 3.914062 8.734375 8.734375 8.734375h137.25c4.828125 0 8.734375-3.90625 8.734375-8.734375-.046875-42.699219-34.652344-77.308594-77.359375-77.359375zm-59.253907 68.628906c4.3125-29.402344 29.539063-51.195312 59.253907-51.195312 29.71875 0 54.941406 21.792968 59.257812 51.195312zm0 0" />
  <path d="m382.90625 414.652344c0 28.949218 23.464844 52.40625 52.40625 52.40625s52.40625-23.457032 52.40625-52.40625c0-28.941406-23.464844-52.40625-52.40625-52.40625-28.925781.035156-52.371094 23.480468-52.40625 52.40625zm87.34375 0c0 19.296875-15.640625 34.9375-34.9375 34.9375s-34.9375-15.640625-34.9375-34.9375c0-19.289063 15.640625-34.9375 34.9375-34.9375 19.289062.027344 34.917969 15.652344 34.9375 34.9375zm0 0" />
  <path d="m435.3125 483.902344c-42.699219.050781-77.3125 34.660156-77.359375 77.359375 0 4.828125 3.914063 8.734375 8.734375 8.734375h137.253906c4.824219 0 8.734375-3.90625 8.734375-8.734375-.050781-42.699219-34.65625-77.308594-77.363281-77.359375zm-59.253906 68.628906c4.316406-29.402344 29.539062-51.195312 59.253906-51.195312 29.71875 0 54.941406 21.792968 59.257812 51.195312zm0 0" />
</svg>