<svg class="icon icon-color" height="456pt" viewBox="-22 0 456 456.82" width="456pt" xmlns="http://www.w3.org/2000/svg">
  <path d="m397.898438 442.820312h-94.976563c3.460937-23.5625 23.675781-41.023437 47.488281-41.023437s44.027344 17.460937 47.488282 41.023437zm0 0" fill="#6fe3ff" />
  <path d="m378.410156 332.320312c0 15.464844-12.535156 28-28 28s-28-12.535156-28-28c0-15.464843 12.535156-28 28-28s28 12.535157 28 28zm0 0" fill="#6fe3ff" />
  <path d="m309.410156 44.21875v96.210938c.003906 3.144531-.644531 6.257812-1.898437 9.140624l-47.320313-48.148437c-2.714844-2.757813-7.144531-2.792969-9.902344-.082031-2.753906 2.710937-2.789062 7.144531-.078124 9.898437l48.050781 48.890625c-3.574219 2.164063-7.675781 3.304688-11.851563 3.300782h-160c-4.191406.003906-8.304687-1.144532-11.890625-3.320313l47.789063-48.890625c2.574218-2.78125 2.464844-7.109375-.246094-9.757812-2.710938-2.648438-7.039062-2.65625-9.761719-.019532l-47.011719 48.078125c-1.242187-2.867187-1.882812-5.960937-1.878906-9.089843v-96.148438l84.289063 71.367188c10.808593 9.207031 26.699219 9.199218 37.5-.007813zm0 0" fill="#e48e66" />
  <path d="m307.378906 27.578125-91.238281 77.382813c-5.582031 4.765624-13.804687 4.769531-19.390625.007812l-91.339844-77.339844c3.707032-8.28125 11.925782-13.617187 21-13.628906h160c9.054688.007812 17.261719 5.320312 20.96875 13.578125zm0 0" fill="#f8ec7d" />
  <path d="m253.898438 442.820312h-94.976563c3.460937-23.5625 23.675781-41.023437 47.488281-41.023437s44.027344 17.460937 47.488282 41.023437zm0 0" fill="#6fe3ff" />
  <path d="m234.410156 332.320312c0 15.464844-12.535156 28-28 28s-28-12.535156-28-28c0-15.464843 12.535156-28 28-28s28 12.535157 28 28zm0 0" fill="#6fe3ff" />
  <path d="m109.898438 442.820312h-94.976563c3.460937-23.5625 23.675781-41.023437 47.488281-41.023437s44.027344 17.460937 47.488282 41.023437zm0 0" fill="#6fe3ff" />
  <path d="m90.410156 332.320312c0 15.464844-12.535156 28-28 28s-28-12.535156-28-28c0-15.464843 12.535156-28 28-28s28 12.535157 28 28zm0 0" fill="#6fe3ff" />
  <g fill="#63316d">
    <path d="m350.410156 387.820312c-34.226562.035157-61.964844 27.773438-62 62 0 3.867188 3.132813 7 7 7h110c3.867188 0 7-3.132812 7-7-.035156-34.226562-27.773437-61.964843-62-62zm-47.488281 55c3.460937-23.5625 23.675781-41.023437 47.488281-41.023437s44.027344 17.460937 47.488282 41.023437zm0 0" />
    <path d="m308.410156 332.320312c0 23.195313 18.804688 42 42 42 23.195313 0 42-18.804687 42-42 0-23.195312-18.804687-42-42-42-23.1875.023438-41.976562 18.8125-42 42zm70 0c0 15.464844-12.535156 28-28 28s-28-12.535156-28-28c0-15.464843 12.535156-28 28-28 15.457032.015626 27.984375 12.542969 28 28zm0 0" />
    <path d="m55.851562 231.160156v39.71875c0 3.867188 3.132813 7 7 7 3.863282 0 7-3.132812 7-7v-32.71875h129.558594v32.371094c0 3.863281 3.132813 7 7 7 3.867188 0 7-3.136719 7-7v-32.371094h129.558594v32.71875c0 3.867188 3.136719 7 7 7 3.867188 0 7-3.132812 7-7v-39.71875c0-3.867187-3.132812-7-7-7h-136.558594v-24.648437c0-3.867188-3.132812-7-7-7-3.867187 0-7 3.132812-7 7v24.648437h-136.558594c-3.867187 0-7 3.132813-7 7zm0 0" />
    <path d="m286.410156 177.429688c20.425782-.023438 36.976563-16.574219 37-37v-103.429688c-.023437-20.425781-16.574218-36.9765625-37-37h-160c-20.425781.0234375-36.976562 16.574219-37 37v103.429688c.023438 20.425781 16.574219 36.976562 37 37zm-160-163.429688h160c9.054688.007812 17.261719 5.320312 20.96875 13.578125l-91.238281 77.382813c-5.582031 4.765624-13.804687 4.769531-19.390625.007812l-91.339844-77.339844c3.707032-8.28125 11.925782-13.617187 21-13.628906zm35.789063 87.328125c-1.324219-1.300781-3.113281-2.019531-4.972657-1.996094-1.855468.019531-3.628906.777344-4.925781 2.109375l-47.011719 48.078125c-1.242187-2.867187-1.882812-5.960937-1.878906-9.089843v-96.148438l84.289063 71.367188c10.808593 9.207031 26.699219 9.199218 37.5-.007813l84.210937-71.421875v96.210938c.003906 3.144531-.644531 6.257812-1.898437 9.140624l-47.320313-48.148437c-2.714844-2.757813-7.144531-2.792969-9.902344-.082031-2.753906 2.710937-2.789062 7.144531-.078124 9.898437l48.050781 48.890625c-3.574219 2.164063-7.675781 3.304688-11.851563 3.300782h-160c-4.191406.003906-8.304687-1.144532-11.890625-3.320313l47.789063-48.890625c2.699218-2.761719 2.648437-7.1875-.109375-9.890625zm0 0" />
    <path d="m206.410156 387.820312c-34.226562.035157-61.964844 27.773438-62 62 0 3.867188 3.132813 7 7 7h110c3.867188 0 7-3.132812 7-7-.035156-34.226562-27.773437-61.964843-62-62zm-47.488281 55c3.460937-23.5625 23.675781-41.023437 47.488281-41.023437s44.027344 17.460937 47.488282 41.023437zm0 0" />
    <path d="m164.410156 332.320312c0 23.195313 18.804688 42 42 42 23.195313 0 42-18.804687 42-42 0-23.195312-18.804687-42-42-42-23.1875.023438-41.976562 18.8125-42 42zm70 0c0 15.464844-12.535156 28-28 28s-28-12.535156-28-28c0-15.464843 12.535156-28 28-28 15.457032.015626 27.984375 12.542969 28 28zm0 0" />
    <path d="m62.410156 387.820312c-34.226562.035157-61.964844 27.773438-62 62 0 3.867188 3.132813 7 7 7h110c3.867188 0 7-3.132812 7-7-.035156-34.226562-27.773437-61.964843-62-62zm-47.488281 55c3.460937-23.5625 23.675781-41.023437 47.488281-41.023437s44.027344 17.460937 47.488282 41.023437zm0 0" />
    <path d="m20.410156 332.320312c0 23.195313 18.804688 42 42 42 23.195313 0 42-18.804687 42-42 0-23.195312-18.804687-42-42-42-23.1875.023438-41.976562 18.8125-42 42zm42-28c15.464844 0 28 12.535157 28 28 0 15.464844-12.535156 28-28 28s-28-12.535156-28-28c.015625-15.457031 12.542969-27.984374 28-28zm0 0" />
  </g>
</svg>