<svg class="password-icon" height="512" viewBox="0 0 64 64" width="512" xmlns="http://www.w3.org/2000/svg">
  <g id="Layer_10" data-name="Layer 10">
    <path d="m32 23a8 8 0 1 0 8 8 8 8 0 0 0 -8-8zm0 14a6 6 0 1 1 6-6 6 6 0 0 1 -6 6z" />
    <path d="m12 18.38a39.94 39.94 0 0 1 40 0l9.48 5.49 1-1.74-9.48-5.48a41.93 41.93 0 0 0 -42 0l-9.5 5.48 1 1.74z" />
    <path d="m57 37.36c.45-.41.92-.83 1.35-1.26l4.4-4.39a1 1 0 0 0 0-1.42l-4.4-4.39a37.2 37.2 0 0 0 -52.62 0l-4.4 4.39a1 1 0 0 0 0 1.42l4.4 4.39a36.94 36.94 0 0 0 26.27 10.9 36.42 36.42 0 0 0 5.32-.39 6.62 6.62 0 0 0 -.32 2 4.4 4.4 0 0 0 4.41 4.39h17.18a4.4 4.4 0 0 0 4.41-4.41 6.39 6.39 0 0 0 -1-3.47zm-.06-10 3.65 3.64-3.69 3.69c-.34.33-.7.65-1 1l-3.52-5.39a2.8 2.8 0 0 0 -2.38-1.3 2.83 2.83 0 0 0 -2.06.91 15.94 15.94 0 0 0 -6.13-11.53 35.07 35.07 0 0 1 15.09 8.93zm-17.41 15.44a14 14 0 1 1 6.47-11.8 15.28 15.28 0 0 1 -.15 2zm-32.43-8.11-3.69-3.69 3.69-3.69a35.07 35.07 0 0 1 15.09-8.93 16 16 0 0 0 0 25.24 35.07 35.07 0 0 1 -15.09-8.93zm53.19 15.6a2.43 2.43 0 0 1 -1.7.71h-17.18a2.42 2.42 0 0 1 -2.41-2.41 4.36 4.36 0 0 1 .7-2.38l9.6-14.83a.83.83 0 0 1 1.4 0l9.6 14.83a4.36 4.36 0 0 1 .7 2.38 2.43 2.43 0 0 1 -.71 1.7z" />
    <path d="m49 36h2v9h-2z" />
    <path d="m49 47h2v2h-2z" />
  </g>
</svg>