<svg class="owner-car-icon" id="Capa_1" enable-background="new 0 0 512 512" height="512" viewBox="0 0 512 512" width="512" xmlns="http://www.w3.org/2000/svg">
  <g>
    <g>
      <g>
        <path d="m436.27 163.248c41.824 0 75.73-33.905 75.73-75.73s-33.905-75.73-75.73-75.73c-31.917 0-59.202 19.754-70.347 47.695h-136.377c-3.315 0-6.002 2.687-6.002 6.002v44.065c0 3.315 2.687 6.002 6.002 6.002h16.102l9.218 15.966c1.608 2.786 4.581 4.502 7.797 4.502h19.683c3.217 0 6.189-1.716 7.797-4.502l9.218-15.966h9.825l10.673 18.487c.708 1.226 2.016 1.981 3.431 1.981s2.723-.755 3.431-1.981l10.674-18.487h28.526c11.147 27.941 38.433 47.696 70.349 47.696zm44.345-75.73c0 16.337-13.244 29.581-29.581 29.581s-29.581-13.244-29.581-29.581 13.244-29.581 29.581-29.581 29.581 13.244 29.581 29.581z" fill="#ffe07d" />
      </g>
      <g>
        <g>
          <path d="m436.27 141.62c-31.917 0-59.202-19.754-70.347-47.695h-28.526l-10.674 18.487c-.708 1.226-2.016 1.981-3.431 1.981s-2.723-.755-3.431-1.981l-10.673-18.487h-9.825l-9.218 15.966c-1.608 2.786-4.581 4.502-7.797 4.502h-19.683c-3.217 0-6.189-1.716-7.797-4.502l-9.218-15.966h-16.102c-3.315 0-6.002-2.687-6.002-6.002v21.628c0 3.315 2.687 6.002 6.002 6.002h16.102l9.218 15.966c1.608 2.786 4.581 4.502 7.797 4.502h19.683c3.217 0 6.189-1.716 7.797-4.502l9.218-15.966h9.825l10.673 18.487c.708 1.226 2.016 1.981 3.431 1.981s2.723-.755 3.431-1.981l10.674-18.487h28.526c11.146 27.941 38.431 47.695 70.347 47.695 41.824 0 75.73-33.905 75.73-75.73 0-3.673-.276-7.281-.781-10.814-5.25 36.7-36.797 64.916-74.949 64.916z" fill="#ffd064" />
        </g>
      </g>
    </g>
    <g>
      <g>
        <path d="m408.813 302.943-23.555-100.81c-2.939-12.579-14.155-21.476-27.073-21.476h-266.212c-12.918 0-24.134 8.897-27.073 21.476l-23.555 100.81z" fill="#d3effb" />
      </g>
      <g>
        <path d="m385.257 202.133c-2.939-12.579-14.155-21.476-27.073-21.476h-26.94l7.693 32.923c3.697 15.824-8.313 30.964-24.563 30.964h-259.384l-13.645 58.398h367.467z" fill="#b1e4f9" />
      </g>
      <g>
        <path d="m408.813 310.445h-367.468c-2.29 0-4.455-1.046-5.878-2.84-1.423-1.795-1.95-4.14-1.428-6.37l23.555-100.809c3.752-16.058 17.889-27.273 34.379-27.273h266.212c16.49 0 30.627 11.214 34.379 27.273l23.555 100.809c.521 2.229-.005 4.575-1.428 6.37-1.423 1.794-3.588 2.84-5.878 2.84zm-358.009-15.006h348.551l-21.403-91.599c-2.157-9.232-10.285-15.68-19.767-15.68h-266.212c-9.481 0-17.61 6.448-19.767 15.68z" fill="#78c2a4" />
      </g>
      <g>
        <g>
          <path d="m101.124 500.212h-44.453c-6.075 0-11-4.925-11-11v-43.78h66.453v43.78c0 6.075-4.925 11-11 11z" fill="#756e78" />
        </g>
      </g>
      <g>
        <g>
          <path d="m393.486 500.212h-44.453c-6.075 0-11-4.925-11-11v-43.78h66.453v43.78c0 6.075-4.925 11-11 11z" fill="#756e78" />
        </g>
      </g>
      <g>
        <path d="m90.543 445.432v42.548c0 6.756-5.477 12.233-12.233 12.233h22.81c6.078 0 11.004-4.927 11.004-11.004v-43.776h-21.581z" fill="#665e66" />
      </g>
      <g>
        <path d="m382.905 445.432v42.548c0 6.756-5.477 12.233-12.233 12.233h22.81c6.078 0 11.004-4.927 11.004-11.004v-43.776h-21.581z" fill="#665e66" />
      </g>
      <g>
        <g>
          <path d="m406.157 457.736h-362.157c-24.301 0-44-19.699-44-44v-82.926c0-25.095 20.344-45.439 45.439-45.439h360.279c24.543 0 44.439 19.896 44.439 44.439v83.926c0 24.3-19.699 44-44 44z" fill="#95d6a4" />
        </g>
      </g>
      <g>
        <path d="m408.955 285.502c.078 1.076.131 2.159.131 3.254v83.89c0 24.31-19.707 44.018-44.018 44.018h-362.122c-.957 0-1.903-.041-2.845-.101 1.468 22.983 20.563 41.172 43.916 41.172h362.123c24.31 0 44.018-19.707 44.018-44.018v-83.89c-.001-23.457-18.171-42.657-41.203-44.325z" fill="#78c2a4" />
      </g>
      <g>
        <path d="m262.752 407.342h-75.346c-10.42 0-18.867-8.447-18.867-18.867v-.015c0-10.42 8.447-18.867 18.867-18.867h75.346c10.42 0 18.867 8.447 18.867 18.867v.015c0 10.42-8.447 18.867-18.867 18.867z" fill="#f1f4f6" />
      </g>
      <g>
        <path d="m266.337 369.944c.224 1.164.351 2.363.351 3.593 0 10.424-8.45 18.875-18.874 18.875h-75.331c-1.23 0-2.429-.127-3.593-.351 1.679 8.704 9.329 15.282 18.523 15.282h75.331c10.424 0 18.874-8.45 18.874-18.875.001-9.195-6.577-16.845-15.281-18.524z" fill="#dfeaef" />
      </g>
      <g>
        <g>
          <circle cx="374.63" cy="371.553" fill="#f1f4f6" r="26.487" />
        </g>
        <g>
          <path d="m384.428 346.946c.965 2.747 1.495 5.699 1.495 8.775 0 14.628-11.859 26.487-26.487 26.487-3.463 0-6.767-.671-9.798-1.88 3.622 10.314 13.44 17.712 24.992 17.712 14.628 0 26.487-11.859 26.487-26.487-.001-11.166-6.913-20.711-16.689-24.607z" fill="#dfeaef" />
        </g>
        <g>
          <circle cx="75.528" cy="371.553" fill="#f1f4f6" r="26.487" />
        </g>
        <g>
          <path d="m85.326 346.946c.965 2.747 1.495 5.699 1.495 8.775 0 14.628-11.859 26.487-26.487 26.487-3.463 0-6.767-.671-9.798-1.88 3.622 10.314 13.44 17.712 24.992 17.712 14.628 0 26.487-11.859 26.487-26.487 0-11.166-6.913-20.711-16.689-24.607z" fill="#dfeaef" />
        </g>
      </g>
    </g>
  </g>
</svg>
